<?xml version="1.0" encoding="UTF-8" standalone="no"?>
<!DOCTYPE svg PUBLIC "-//W3C//DTD SVG 1.1//EN"
 "http://www.w3.org/Graphics/SVG/1.1/DTD/svg11.dtd">
<!-- Generated by graphviz version 2.47.0 (20210316.0004)
 -->
<!-- Title: dependencies Pages: 1 -->
<svg width="863pt" height="284pt"
 viewBox="0.00 0.00 863.00 284.00" xmlns="http://www.w3.org/2000/svg" xmlns:xlink="http://www.w3.org/1999/xlink">
<g id="graph0" class="graph" transform="scale(1 1) rotate(0) translate(4 280)">
<title>dependencies</title>
<polygon fill="white" stroke="transparent" points="-4,4 -4,-280 859,-280 859,4 -4,4"/>
<text text-anchor="start" x="406.51" y="-42.4" font-family="Times-12" font-weight="bold" font-size="14.00">Legend</text>
<polygon fill="#ffffb3" stroke="transparent" points="193.5,-10 193.5,-30 213.5,-30 213.5,-10 193.5,-10"/>
<text text-anchor="start" x="217.13" y="-15.4" font-family="Times-12" font-size="14.00"> &#160;Declarations</text>
<polygon fill="#8dd3c7" stroke="transparent" points="306.5,-10 306.5,-30 326.5,-30 326.5,-10 306.5,-10"/>
<text text-anchor="start" x="330.23" y="-15.4" font-family="Times-12" font-size="14.00"> &#160;Module</text>
<polygon fill="#80b1d3" stroke="transparent" points="392.5,-10 392.5,-30 412.5,-30 412.5,-10 392.5,-10"/>
<text text-anchor="start" x="416.28" y="-15.4" font-family="Times-12" font-size="14.00"> &#160;Bootstrap</text>
<polygon fill="#fdb462" stroke="transparent" points="489.5,-10 489.5,-30 509.5,-30 509.5,-10 489.5,-10"/>
<text text-anchor="start" x="513.17" y="-15.4" font-family="Times-12" font-size="14.00"> &#160;Providers</text>
<polygon fill="#fb8072" stroke="transparent" points="585.5,-10 585.5,-30 605.5,-30 605.5,-10 585.5,-10"/>
<text text-anchor="start" x="609.23" y="-15.4" font-family="Times-12" font-size="14.00"> &#160;Exports</text>
<g id="clust1" class="cluster">
<title>cluster_AppModule</title>
<polygon fill="none" stroke="black" stroke-dasharray="1,5" points="8,-70 8,-268 847,-268 847,-70 8,-70"/>
</g>
<g id="clust8" class="cluster">
<title>cluster_AppModule_imports</title>
<polygon fill="none" stroke="black" points="695,-78 695,-130 839,-130 839,-78 695,-78"/>
</g>
<g id="clust10" class="cluster">
<title>cluster_AppModule_bootstrap</title>
<polygon fill="none" stroke="black" points="356,-208 356,-260 480,-260 480,-208 356,-208"/>
</g>
<g id="clust2" class="cluster">
<title>cluster_AppModule_declarations</title>
<polygon fill="none" stroke="black" points="16,-78 16,-130 687,-130 687,-78 16,-78"/>
</g>
<!-- AppComponent -->
<g id="node1" class="node">
<title>AppComponent</title>
<polygon fill="#ffffb3" stroke="black" points="678.94,-122 573.06,-122 573.06,-86 678.94,-86 678.94,-122"/>
<text text-anchor="middle" x="626" y="-99.8" font-family="Times,serif" font-size="14.00">AppComponent</text>
</g>
<!-- AppModule -->
<g id="node6" class="node">
<title>AppModule</title>
<polygon fill="#8dd3c7" stroke="black" points="459.66,-187 456.66,-191 435.66,-191 432.66,-187 376.34,-187 376.34,-151 459.66,-151 459.66,-187"/>
<text text-anchor="middle" x="418" y="-164.8" font-family="Times,serif" font-size="14.00">AppModule</text>
</g>
<!-- AppComponent&#45;&gt;AppModule -->
<g id="edge1" class="edge">
<title>AppComponent&#45;&gt;AppModule</title>
<path fill="none" stroke="black" d="M626,-122.02C626,-139.37 626,-163 626,-163 626,-163 470.09,-163 470.09,-163"/>
<polygon fill="black" stroke="black" points="470.09,-159.5 460.09,-163 470.09,-166.5 470.09,-159.5"/>
</g>
<!-- DetalhesComponent -->
<g id="node2" class="node">
<title>DetalhesComponent</title>
<polygon fill="#ffffb3" stroke="black" points="555.31,-122 424.69,-122 424.69,-86 555.31,-86 555.31,-122"/>
<text text-anchor="middle" x="490" y="-99.8" font-family="Times,serif" font-size="14.00">DetalhesComponent</text>
</g>
<!-- DetalhesComponent&#45;&gt;AppModule -->
<g id="edge2" class="edge">
<title>DetalhesComponent&#45;&gt;AppModule</title>
<path fill="none" stroke="black" d="M442.34,-122.11C442.34,-122.11 442.34,-140.99 442.34,-140.99"/>
<polygon fill="black" stroke="black" points="438.84,-140.99 442.34,-150.99 445.84,-140.99 438.84,-140.99"/>
</g>
<!-- HeaderComponent -->
<g id="node3" class="node">
<title>HeaderComponent</title>
<polygon fill="#ffffb3" stroke="black" points="406.74,-122 285.26,-122 285.26,-86 406.74,-86 406.74,-122"/>
<text text-anchor="middle" x="346" y="-99.8" font-family="Times,serif" font-size="14.00">HeaderComponent</text>
</g>
<!-- HeaderComponent&#45;&gt;AppModule -->
<g id="edge3" class="edge">
<title>HeaderComponent&#45;&gt;AppModule</title>
<path fill="none" stroke="black" d="M391.52,-122.11C391.52,-122.11 391.52,-140.99 391.52,-140.99"/>
<polygon fill="black" stroke="black" points="388.02,-140.99 391.52,-150.99 395.02,-140.99 388.02,-140.99"/>
</g>
<!-- HomeComponent -->
<g id="node4" class="node">
<title>HomeComponent</title>
<polygon fill="#ffffb3" stroke="black" points="266.55,-122 151.45,-122 151.45,-86 266.55,-86 266.55,-122"/>
<text text-anchor="middle" x="209" y="-99.8" font-family="Times,serif" font-size="14.00">HomeComponent</text>
</g>
<!-- HomeComponent&#45;&gt;AppModule -->
<g id="edge4" class="edge">
<title>HomeComponent&#45;&gt;AppModule</title>
<path fill="none" stroke="black" d="M209,-122.02C209,-139.37 209,-163 209,-163 209,-163 366.21,-163 366.21,-163"/>
<polygon fill="black" stroke="black" points="366.21,-166.5 376.21,-163 366.21,-159.5 366.21,-166.5"/>
</g>
<!-- ListaComponent -->
<g id="node5" class="node">
<title>ListaComponent</title>
<polygon fill="#ffffb3" stroke="black" points="133.83,-122 24.17,-122 24.17,-86 133.83,-86 133.83,-122"/>
<text text-anchor="middle" x="79" y="-99.8" font-family="Times,serif" font-size="14.00">ListaComponent</text>
</g>
<!-- ListaComponent&#45;&gt;AppModule -->
<g id="edge5" class="edge">
<title>ListaComponent&#45;&gt;AppModule</title>
<path fill="none" stroke="black" d="M79,-122.28C79,-143.32 79,-175 79,-175 79,-175 366.09,-175 366.09,-175"/>
<polygon fill="black" stroke="black" points="366.09,-178.5 376.09,-175 366.09,-171.5 366.09,-178.5"/>
</g>
<!-- AppComponent  -->
<g id="node8" class="node">
<title>AppComponent </title>
<polygon fill="#80b1d3" stroke="black" points="472.44,-252 363.56,-252 363.56,-216 472.44,-216 472.44,-252"/>
<text text-anchor="middle" x="418" y="-229.8" font-family="Times,serif" font-size="14.00">AppComponent </text>
</g>
<!-- AppModule&#45;&gt;AppComponent  -->
<g id="edge7" class="edge">
<title>AppModule&#45;&gt;AppComponent </title>
<path fill="none" stroke="black" stroke-dasharray="1,5" d="M418,-187.11C418,-187.11 418,-205.99 418,-205.99"/>
<polygon fill="black" stroke="black" points="414.5,-205.99 418,-215.99 421.5,-205.99 414.5,-205.99"/>
</g>
<!-- AppRoutingModule -->
<g id="node7" class="node">
<title>AppRoutingModule</title>
<polygon fill="#8dd3c7" stroke="black" points="831.27,-122 828.27,-126 807.27,-126 804.27,-122 702.73,-122 702.73,-86 831.27,-86 831.27,-122"/>
<text text-anchor="middle" x="767" y="-99.8" font-family="Times,serif" font-size="14.00">AppRoutingModule</text>
</g>
<!-- AppRoutingModule&#45;&gt;AppModule -->
<g id="edge6" class="edge">
<title>AppRoutingModule&#45;&gt;AppModule</title>
<path fill="none" stroke="black" d="M767,-122.28C767,-143.32 767,-175 767,-175 767,-175 469.75,-175 469.75,-175"/>
<polygon fill="black" stroke="black" points="469.75,-171.5 459.75,-175 469.75,-178.5 469.75,-171.5"/>
</g>
</g>
</svg>
