<?xml version="1.0" encoding="UTF-8" standalone="no"?>
<!DOCTYPE svg PUBLIC "-//W3C//DTD SVG 1.1//EN"
 "http://www.w3.org/Graphics/SVG/1.1/DTD/svg11.dtd">
<!-- Generated by graphviz version 2.47.0 (20210316.0004)
 -->
<!-- Title: dependencies Pages: 1 -->
<svg width="863pt" height="284pt"
 viewBox="0.00 0.00 863.00 284.00" xmlns="http://www.w3.org/2000/svg" xmlns:xlink="http://www.w3.org/1999/xlink">
<g id="graph0" class="graph" transform="scale(1 1) rotate(0) translate(4 280)">
<title>dependencies</title>
<polygon fill="white" stroke="transparent" points="-4,4 -4,-280 859,-280 859,4 -4,4"/>
<text text-anchor="start" x="406.51" y="-42.4" font-family="Times-12" font-weight="bold" font-size="14.00">Legend</text>
<polygon fill="#ffffb3" stroke="transparent" points="193.5,-10 193.5,-30 213.5,-30 213.5,-10 193.5,-10"/>
<text text-anchor="start" x="217.13" y="-15.4" font-family="Times-12" font-size="14.00"> &#160;Declarations</text>
<polygon fill="#8dd3c7" stroke="transparent" points="306.5,-10 306.5,-30 326.5,-30 326.5,-10 306.5,-10"/>
<text text-anchor="start" x="330.23" y="-15.4" font-family="Times-12" font-size="14.00"> &#160;Module</text>
<polygon fill="#80b1d3" stroke="transparent" points="392.5,-10 392.5,-30 412.5,-30 412.5,-10 392.5,-10"/>
<text text-anchor="start" x="416.28" y="-15.4" font-family="Times-12" font-size="14.00"> &#160;Bootstrap</text>
<polygon fill="#fdb462" stroke="transparent" points="489.5,-10 489.5,-30 509.5,-30 509.5,-10 489.5,-10"/>
<text text-anchor="start" x="513.17" y="-15.4" font-family="Times-12" font-size="14.00"> &#160;Providers</text>
<polygon fill="#fb8072" stroke="transparent" points="585.5,-10 585.5,-30 605.5,-30 605.5,-10 585.5,-10"/>
<text text-anchor="start" x="609.23" y="-15.4" font-family="Times-12" font-size="14.00"> &#160;Exports</text>
<g id="clust1" class="cluster">
<title>cluster_AppModule</title>
<polygon fill="none" stroke="black" stroke-dasharray="1,5" points="8,-70 8,-268 847,-268 847,-70 8,-70"/>
</g>
<g id="clust2" class="cluster">
<title>cluster_AppModule_declarations</title>
<polygon fill="none" stroke="black" points="168,-78 168,-130 839,-130 839,-78 168,-78"/>
</g>
<g id="clust8" class="cluster">
<title>cluster_AppModule_imports</title>
<polygon fill="none" stroke="black" points="16,-78 16,-130 160,-130 160,-78 16,-78"/>
</g>
<g id="clust10" class="cluster">
<title>cluster_AppModule_bootstrap</title>
<polygon fill="none" stroke="black" points="367,-208 367,-260 491,-260 491,-208 367,-208"/>
</g>
<!-- AppComponent -->
<g id="node1" class="node">
<title>AppComponent</title>
<polygon fill="#ffffb3" stroke="black" points="830.94,-122 725.06,-122 725.06,-86 830.94,-86 830.94,-122"/>
<text text-anchor="middle" x="778" y="-99.8" font-family="Times,serif" font-size="14.00">AppComponent</text>
</g>
<!-- AppModule -->
<g id="node6" class="node">
<title>AppModule</title>
<polygon fill="#8dd3c7" stroke="black" points="470.66,-187 467.66,-191 446.66,-191 443.66,-187 387.34,-187 387.34,-151 470.66,-151 470.66,-187"/>
<text text-anchor="middle" x="429" y="-164.8" font-family="Times,serif" font-size="14.00">AppModule</text>
</g>
<!-- AppComponent&#45;&gt;AppModule -->
<g id="edge1" class="edge">
<title>AppComponent&#45;&gt;AppModule</title>
<path fill="none" stroke="black" d="M778,-122.28C778,-143.32 778,-175 778,-175 778,-175 480.75,-175 480.75,-175"/>
<polygon fill="black" stroke="black" points="480.75,-171.5 470.75,-175 480.75,-178.5 480.75,-171.5"/>
</g>
<!-- DetalhesComponent -->
<g id="node2" class="node">
<title>DetalhesComponent</title>
<polygon fill="#ffffb3" stroke="black" points="707.31,-122 576.69,-122 576.69,-86 707.31,-86 707.31,-122"/>
<text text-anchor="middle" x="642" y="-99.8" font-family="Times,serif" font-size="14.00">DetalhesComponent</text>
</g>
<!-- DetalhesComponent&#45;&gt;AppModule -->
<g id="edge2" class="edge">
<title>DetalhesComponent&#45;&gt;AppModule</title>
<path fill="none" stroke="black" d="M642,-122.02C642,-139.37 642,-163 642,-163 642,-163 480.83,-163 480.83,-163"/>
<polygon fill="black" stroke="black" points="480.83,-159.5 470.83,-163 480.83,-166.5 480.83,-159.5"/>
</g>
<!-- HeaderComponent -->
<g id="node3" class="node">
<title>HeaderComponent</title>
<polygon fill="#ffffb3" stroke="black" points="558.74,-122 437.26,-122 437.26,-86 558.74,-86 558.74,-122"/>
<text text-anchor="middle" x="498" y="-99.8" font-family="Times,serif" font-size="14.00">HeaderComponent</text>
</g>
<!-- HeaderComponent&#45;&gt;AppModule -->
<g id="edge3" class="edge">
<title>HeaderComponent&#45;&gt;AppModule</title>
<path fill="none" stroke="black" d="M453.98,-122.11C453.98,-122.11 453.98,-140.99 453.98,-140.99"/>
<polygon fill="black" stroke="black" points="450.48,-140.99 453.98,-150.99 457.48,-140.99 450.48,-140.99"/>
</g>
<!-- HomeComponent -->
<g id="node4" class="node">
<title>HomeComponent</title>
<polygon fill="#ffffb3" stroke="black" points="418.55,-122 303.45,-122 303.45,-86 418.55,-86 418.55,-122"/>
<text text-anchor="middle" x="361" y="-99.8" font-family="Times,serif" font-size="14.00">HomeComponent</text>
</g>
<!-- HomeComponent&#45;&gt;AppModule -->
<g id="edge4" class="edge">
<title>HomeComponent&#45;&gt;AppModule</title>
<path fill="none" stroke="black" d="M402.97,-122.11C402.97,-122.11 402.97,-140.99 402.97,-140.99"/>
<polygon fill="black" stroke="black" points="399.47,-140.99 402.97,-150.99 406.47,-140.99 399.47,-140.99"/>
</g>
<!-- ListaComponent -->
<g id="node5" class="node">
<title>ListaComponent</title>
<polygon fill="#ffffb3" stroke="black" points="285.83,-122 176.17,-122 176.17,-86 285.83,-86 285.83,-122"/>
<text text-anchor="middle" x="231" y="-99.8" font-family="Times,serif" font-size="14.00">ListaComponent</text>
</g>
<!-- ListaComponent&#45;&gt;AppModule -->
<g id="edge5" class="edge">
<title>ListaComponent&#45;&gt;AppModule</title>
<path fill="none" stroke="black" d="M231,-122.02C231,-139.37 231,-163 231,-163 231,-163 377.01,-163 377.01,-163"/>
<polygon fill="black" stroke="black" points="377.01,-166.5 387.01,-163 377.01,-159.5 377.01,-166.5"/>
</g>
<!-- AppComponent  -->
<g id="node8" class="node">
<title>AppComponent </title>
<polygon fill="#80b1d3" stroke="black" points="483.44,-252 374.56,-252 374.56,-216 483.44,-216 483.44,-252"/>
<text text-anchor="middle" x="429" y="-229.8" font-family="Times,serif" font-size="14.00">AppComponent </text>
</g>
<!-- AppModule&#45;&gt;AppComponent  -->
<g id="edge7" class="edge">
<title>AppModule&#45;&gt;AppComponent </title>
<path fill="none" stroke="black" stroke-dasharray="1,5" d="M429,-187.11C429,-187.11 429,-205.99 429,-205.99"/>
<polygon fill="black" stroke="black" points="425.5,-205.99 429,-215.99 432.5,-205.99 425.5,-205.99"/>
</g>
<!-- AppRoutingModule -->
<g id="node7" class="node">
<title>AppRoutingModule</title>
<polygon fill="#8dd3c7" stroke="black" points="152.27,-122 149.27,-126 128.27,-126 125.27,-122 23.73,-122 23.73,-86 152.27,-86 152.27,-122"/>
<text text-anchor="middle" x="88" y="-99.8" font-family="Times,serif" font-size="14.00">AppRoutingModule</text>
</g>
<!-- AppRoutingModule&#45;&gt;AppModule -->
<g id="edge6" class="edge">
<title>AppRoutingModule&#45;&gt;AppModule</title>
<path fill="none" stroke="black" d="M88,-122.28C88,-143.32 88,-175 88,-175 88,-175 377.19,-175 377.19,-175"/>
<polygon fill="black" stroke="black" points="377.19,-178.5 387.19,-175 377.19,-171.5 377.19,-178.5"/>
</g>
</g>
</svg>
